# Blender 4.2.0
# www.blender.org
mtllib cornell.mtl
o cornell_box
v -1.684011 3.139799 -2.716226
v -0.104011 3.139409 -3.206226
v -0.594011 3.138134 -4.806226
v -2.174011 3.138533 -4.306226
v -1.684011 -0.160200 -2.713598
v -1.684011 3.139799 -2.716226
v -2.174011 3.138533 -4.306226
v -2.174011 -0.161466 -4.303598
v -2.174011 -0.161466 -4.303598
v -2.174011 3.138533 -4.306226
v -0.594011 3.138134 -4.806226
v -0.594011 -0.161864 -4.803598
v -0.594011 -0.161864 -4.803598
v -0.594011 3.138134 -4.806226
v -0.104011 3.139409 -3.206226
v -0.104011 -0.160590 -3.203598
v -0.104011 -0.160590 -3.203598
v -0.104011 3.139409 -3.206226
v -1.684011 3.139799 -2.716226
v -1.684011 -0.160200 -2.713598
v -0.884011 5.319334 -2.517968
v -0.884011 5.318497 -3.567968
v 0.415989 5.318497 -3.567968
v 0.415989 5.319334 -2.517968
v -2.950011 -0.162686 -5.835598
v 2.545989 -0.162686 -5.835598
v 2.545989 5.325313 -5.839967
v -3.014011 5.325313 -5.839967
v -3.014011 5.329765 -0.247969
v -3.014011 5.325313 -5.839969
v 2.545989 5.325313 -5.839969
v 2.545989 5.329765 -0.247969
v -2.982011 -0.158233 -0.243599
v 2.545989 -0.158233 -0.243599
v 2.545989 -0.162686 -5.835598
v -2.950011 -0.162686 -5.835598
v -2.982011 -0.158233 -0.243599
v -2.950011 -0.162686 -5.835598
v -3.014011 5.325313 -5.839969
v -3.014011 5.329765 -0.247969
v 2.545989 -0.162686 -5.835598
v 2.545989 -0.158233 -0.243599
v 2.545989 5.329765 -0.247969
v 2.545989 5.325313 -5.839969
v 1.245989 1.491249 -0.894913
v 1.725989 1.489975 -2.494912
v 0.145989 1.489601 -2.964912
v -0.354011 1.490859 -1.384912
v -0.354011 -0.159141 -1.383599
v -0.354011 1.490859 -1.384912
v 0.145989 1.489601 -2.964912
v 0.145989 -0.160399 -2.963598
v 1.245989 -0.158750 -0.893599
v 1.245989 1.491249 -0.894913
v -0.354011 1.490859 -1.384912
v -0.354011 -0.159141 -1.383599
v 1.725989 -0.160024 -2.493598
v 1.725989 1.489975 -2.494912
v 1.245989 1.491249 -0.894913
v 1.245989 -0.158750 -0.893599
v 0.145989 -0.160399 -2.963598
v 0.145989 1.489601 -2.964912
v 1.725989 1.489975 -2.494912
v 1.725989 -0.160024 -2.493598
vn -0.0000 1.0000 -0.0008
vn -0.9556 0.0002 0.2945
vn -0.3017 -0.0008 -0.9534
vn 0.9562 -0.0002 -0.2928
vn 0.2962 0.0008 0.9551
vn -0.0000 -1.0000 0.0008
vn -0.0000 0.0008 1.0000
vn 1.0000 0.0058 -0.0000
vn 0.9999 0.0117 0.0057
vn -1.0000 -0.0000 -0.0000
vn -0.9534 -0.0002 -0.3017
vn -0.2928 0.0008 0.9562
vn 0.9578 0.0002 0.2873
vn 0.2851 -0.0008 -0.9585
vt 0.433803 0.675856
vt 0.333329 0.776732
vt 0.333329 0.675677
vt 0.870615 -0.000000
vt 0.774116 0.200435
vt 0.774116 0.000000
vt 0.774116 0.200434
vt 0.673460 0.000000
vt 0.774116 -0.000000
vt 0.767165 0.874126
vt 0.666671 0.673626
vt 0.767165 0.673693
vt 0.857667 0.874060
vt 0.767165 0.673626
vt 0.857667 0.673626
vt 0.433982 0.777492
vt 0.870615 0.200434
vt 0.673460 0.200434
vt 0.666671 0.874058
vt 0.767165 0.874060
vt 0.238510 0.679290
vt 0.174736 0.758249
vt 0.174736 0.679290
vt 0.238510 0.758249
vt 0.666671 0.669782
vt 1.000000 0.339645
vt 1.000000 0.673626
vt 0.666671 0.339645
vt 0.337702 0.339645
vt 0.000000 0.000000
vt 0.337702 0.000000
vt 0.000000 0.339645
vt 0.673460 0.000000
vt 0.339645 0.339645
vt 0.337702 0.000000
vt 0.673460 0.339645
vt 0.666671 0.339645
vt 0.333329 0.675677
vt 0.333337 0.339703
vt 0.666671 0.675335
vt 0.000000 0.339645
vt 0.333329 0.679290
vt 0.000000 0.679290
vt 0.333329 0.339645
vt 0.673460 0.238010
vt 0.774112 0.338709
vt 0.673460 0.339645
vt 0.630240 0.775895
vt 0.534199 0.675677
vt 0.630240 0.675677
vt 0.534199 0.675677
vt 0.433982 0.776193
vt 0.433982 0.675677
vt 0.091855 0.779506
vt 0.000000 0.679480
vt 0.091855 0.679290
vt 0.174736 0.779507
vt 0.091855 0.679290
vt 0.174736 0.679290
vt 0.774917 0.238591
vt 0.534199 0.775895
vt 0.534199 0.776193
vt 0.000000 0.779697
vt 0.091855 0.779507
s 0
usemtl Khaki
f 2/1/1 4/2/1 1/3/1
f 5/4/2 7/5/2 8/6/2
f 10/7/3 12/8/3 9/9/3
f 14/10/4 16/11/4 13/12/4
f 18/13/5 20/14/5 17/15/5
f 2/1/1 3/16/1 4/2/1
f 5/4/2 6/17/2 7/5/2
f 10/7/3 11/18/3 12/8/3
f 14/10/4 15/19/4 16/11/4
f 18/13/5 19/20/5 20/14/5
f 25/25/7 27/26/7 28/27/7
f 25/25/7 26/28/7 27/26/7
f 30/29/6 32/30/6 29/31/6
f 30/29/6 31/32/6 32/30/6
f 34/33/1 36/34/1 33/35/1
f 34/33/1 35/36/1 36/34/1
f 45/45/1 47/46/1 48/47/1
f 50/48/11 52/49/11 49/50/11
f 54/51/12 56/52/12 53/53/12
f 58/54/13 60/55/13 57/56/13
f 62/57/14 64/58/14 61/59/14
f 45/45/1 46/60/1 47/46/1
f 50/48/11 51/61/11 52/49/11
f 54/51/12 55/62/12 56/52/12
f 58/54/13 59/63/13 60/55/13
f 62/57/14 63/64/14 64/58/14
usemtl Light
f 22/21/6 24/22/6 21/23/6
f 22/21/6 23/24/6 24/22/6
usemtl BloodyRed
f 37/37/8 39/38/8 40/39/8
f 37/37/9 38/40/9 39/38/9
usemtl DarkGreen
f 42/41/10 44/42/10 41/43/10
f 42/41/10 43/44/10 44/42/10
